<?xml version="1.0" encoding="utf-8"?>
<svg xmlns="http://www.w3.org/2000/svg" viewBox="0 0 512 512" xmlns:bx="https://boxy-svg.com" width="512px" height="512px"><defs><bx:export><bx:file format="svg" excluded="true"/><bx:file format="svg" path="Untitled 2.svg"/></bx:export></defs><path style="stroke-width: 1; fill: rgb(255, 255, 255);" d="M 0 256 C 0 209.4 12.5 165.6 34.3 127.1 L 144.1 318.3 C 166 357.5 207.9 384 256 384 C 270.3 384 283.1 381.7 296.8 377.4 L 220.5 509.6 C 95.9 492.3 0 385.3 0 256 Z M 365.1 321.6 C 377.4 302.4 384 279.1 384 256 C 384 217.8 367.2 183.5 340.7 160 L 493.4 160 C 505.4 189.6 512 222.1 512 256 C 512 397.4 397.4 511.1 256 512 L 365.1 321.6 Z M 477.8 128 L 256 128 C 193.1 128 142.3 172.1 130.5 230.7 L 54.2 98.5 C 101 38.5 174 0 256 0 C 350.8 0 433.5 51.5 477.8 128 Z M 344 256 C 344 304.6 304.6 344 256 344 C 207.4 344 168 304.6 168 256 C 168 207.4 207.4 168 256 168 C 304.6 168 344 207.4 344 256 Z"/></svg>
