<?xml version="1.0" encoding="utf-8"?>
<svg xmlns="http://www.w3.org/2000/svg" viewBox="0 0 512 512" xmlns:bx="https://boxy-svg.com" width="512px" height="512px"><defs><bx:export><bx:file format="svg" excluded="true"/><bx:file format="svg" path="Untitled 2.svg"/></bx:export></defs><path style="stroke-width: 1;" d="M 120.1 37.417 C 161.1 12.217 207.7 -0.783 255 0.017 C 423 0.017 512 123.817 512 219.517 C 511.9 252.217 499 283.417 476.1 306.717 C 453.2 329.917 422.1 343.217 389.4 343.717 C 314.2 343.717 297.9 320.617 297.9 311.717 C 297.9 307.917 299.1 305.517 302.7 302.317 L 303.7 301.117 L 304.1 299.517 C 314.6 288.017 320 273.317 320 257.917 C 320 179.217 237.8 115.217 136 115.217 C 98.5 114.917 61.5 124.117 28.5 142.117 C 55.5 84.617 111.2 44.517 119.8 38.317 C 120.6 37.717 120.1 37.517 120.1 37.517 L 120.1 37.417 Z M 135.7 355.517 C 134.3 385.517 140.3 415.517 152.1 442.717 C 165.7 469.117 184.8 493.717 208.6 512.017 C 149.1 500.517 97.1 468.117 59.2 422.717 C 21.1 376.317 0 318.417 0 257.917 C 0 206.717 62.4 163.517 136 163.517 C 172.6 162.917 208.4 174.417 237.8 196.217 L 234.2 197.417 C 182.7 215.017 135.7 288.117 135.7 355.517 Z M 469.8 400.017 L 469.1 400.117 C 457.3 418.917 443.2 435.217 426.9 449.617 C 396.1 477.617 358.8 495.117 318.1 499.517 C 299.5 499.817 281.3 496.317 264.3 488.117 C 238.7 477.817 217.2 458.117 202.7 435.117 C 188.3 411.217 181.6 383.417 183.7 355.517 C 183.1 335.417 189.1 315.217 198.7 297.317 C 212.6 330.417 236.2 358.617 266.3 378.117 C 296.4 397.617 331.8 407.617 367.7 406.717 C 398.7 407.017 429.8 400.017 457.9 386.217 L 459.8 385.317 C 463.7 383.017 467.5 381.417 471.4 385.317 C 475.9 390.217 473.2 394.517 470.2 399.317 C 470 399.517 469.9 399.817 469.8 400.017 Z"/></svg>