<?xml version="1.0" encoding="utf-8"?>
<svg xmlns="http://www.w3.org/2000/svg" viewBox="0 0 512 512" xmlns:bx="https://boxy-svg.com" width="512px" height="512px"><defs><bx:export><bx:file format="svg" excluded="true"/><bx:file format="svg" path="Untitled 2.svg"/></bx:export></defs><path style="stroke-width: 1; fill: rgb(255, 255, 255);" d="M 324.009 33.767 C 148.328 33.767 63.274 264.774 171.759 400.302 C 209.434 447.164 263.212 478.337 324.009 478.337 C 361.478 478.337 396.573 466.879 426.61 446.958 C 381.399 487.42 321.428 511.987 255.987 511.987 C 251.961 511.987 247.729 511.987 243.703 511.677 C 107.969 505.38 0 393.386 0 256 C 0 114.588 114.575 0.013 255.987 0.013 L 256.812 0.013 C 321.944 0.323 381.399 24.89 426.507 65.146 C 396.573 45.121 361.375 33.767 324.009 33.767 Z M 429.087 444.274 C 386.87 469.769 335.466 468.634 292.836 438.287 C 350.846 417.127 393.682 343.737 393.682 256 C 393.682 168.572 351.156 95.183 293.146 73.713 C 336.292 43.572 387.283 42.437 430.326 68.552 C 539.636 170.43 539.223 342.808 429.087 444.274 Z"/></svg>