<?xml version="1.0" encoding="utf-8"?>
<svg xmlns="http://www.w3.org/2000/svg" viewBox="0 0 575.9 448" xmlns:bx="https://boxy-svg.com" width="575.9px" height="448px"><defs><bx:export><bx:file format="svg" excluded="true"/><bx:file format="svg" path="Untitled 2.svg"/></bx:export></defs><path style="stroke-width: 1; fill: rgb(255, 255, 255);" d="M 287.881 64 C 196.981 64 114.681 100 54.181 158.6 C 41.481 170.9 21.181 170.6 8.981 157.9 C -3.219 145.2 -3.019 124.9 9.681 112.7 C 81.581 42.9 179.781 0 287.881 0 C 395.981 0 494.181 42.9 566.181 112.7 C 578.881 125 579.181 145.3 566.881 157.9 C 554.581 170.5 534.281 170.9 521.681 158.6 C 461.081 100 378.781 64 287.881 64 Z M 239.881 400 C 239.881 373.5 261.381 352 287.881 352 C 314.381 352 335.881 373.5 335.881 400 C 335.881 426.5 314.381 448 287.881 448 C 261.381 448 239.881 426.5 239.881 400 Z M 167.881 294.2 C 156.181 307.5 135.981 308.7 122.681 297 C 109.381 285.3 108.181 265.1 119.881 251.8 C 160.881 205.4 220.981 176 287.881 176 C 354.781 176 414.881 205.4 455.881 251.8 C 467.581 265.1 466.281 285.3 453.081 297 C 439.881 308.7 419.581 307.4 407.881 294.2 C 378.481 260.9 335.681 240 287.881 240 C 240.081 240 197.281 260.9 167.881 294.2 Z"/></svg>